/* XPM */
static char *ac72b03983044b4388034a2b735b9624ivqW2i9wQ6PQ86ud[] = {
/* columns rows colors chars-per-pixel */
"64 64 61 1 ",
"  c gray22",
". c #555555",
"X c #484848",
"o c #EE0000",
"O c #D60000",
"+ c #A50000",
"@ c #E20000",
"# c #CA0000",
"$ c #BE0000",
"% c #FFF620",
"& c #B20000",
"* c #890000",
"= c #650000",
"- c #2C2C2C",
"; c #7D0000",
": c #990000",
"> c #710000",
", c #E6DA00",
"< c #CEC600",
"1 c #858500",
"2 c #B6B6B6",
"3 c #716D00",
"4 c #AA6940",
"5 c #9D9D00",
"6 c #595500",
"7 c #717171",
"8 c gray49",
"9 c #EA8D59",
"0 c black",
"q c #553C1C",
"w c #400000",
"e c gray60",
"r c gray25",
"t c #590000",
"y c #FF2020",
"u c red",
"i c gray76",
"p c #282828",
"a c #AAAAAA",
"s c #D2D2D2",
"d c #8D8D8D",
"f c #6D0071",
"g c #656565",
"h c #590059",
"j c #610065",
"k c #500050",
"l c #B65500",
"z c #CE6100",
"x c #FF7900",
"c c #480048",
"v c #FF8920",
"b c #AA0000",
"n c #850085",
"m c #400040",
"M c #4C0000",
"N c #9D009D",
"B c gray19",
"V c #754C28",
"C c gray11",
"Z c #202020",
"A c #343434",
/* pixels */
"                                                                ",
". .XXXXX.XXXXXX.X XXXXXXX......XXXXXXXXX.......XXXX   XX..XXXXX ",
" ooOOOOOOOOO+XX.ooOOOOOOOOOOOOOOOOOO+X .oooo@@@@@@OOOOO####$$$+X",
"X%#&&O*+O*#+=-X.o$*$*$*$;$:$:$;$;$#+>-X O+#&#&&#>#;#&#*&+;#:#+%-",
",<12222222222222222222222222222222222222222222222222222222222<<3",
"4567788888888888888888888888888888888888888888888888888888777396",
"0qw8888eeeeeeeeeeeeeeeeeeeeeeeeeeeeeeeeeeeeeeeeeeeeeeeeee8788040",
"rt>e8y+ww.>>>>>>>>>>>>>>>>>>>>>>>>>>>>>>>>>>>>>>>>+&u@8www8i7=0p",
"X$+a8+ie7w8aisii22222222222222222222222222222222iiiii8w87ey87*w-",
"X;=2eweie8deaad8asi2222222222222222222222222222dfgi2aaa7as+78ww-",
"XX-saweaie88ee.h7assii2222222222222222222222iidgjkeaaeeas8w8e---",
".  s2.7e2ie88dkhhh8asiiiii22k7.kkkklzx2222iidgjhkkeeeeasig.daX. ",
"oO#2sw8ea2ie7gXckkhh8a222222kkkkk8kllzv222dgjhkkkXeeeaiia8wea#OO",
"&**2s>edea2gh7gXcckkhhh8d2227kkkkkkld22dgjjhhkkkX77kgaiad8wa2b*&",
"*+*2s&aedegfjX7gXccccnhhh7d22kkkkkkd2dgjjhnkkkcX7.fjjgae8d>a2;+:",
">++22:2eddcjfjhXgX ccfchhhh22kkkkkk22hjjhkfcc XgXkjjffed8d>a2;+;",
"+**22*iaedccjfjjhX. mmccch.22kkkkkk22.cccccc XXckhjfffd8dd>a2+:;",
">+=22>s2aeXccjffjhcmmmmccd227kkkkkk722dcccmmmcckhjfff.d8de>22+;*",
">&=22>si2egXchjjfjhfmmmcdk72kkkkkkkk27cdcmmchcchjfff.88dda>22>:>",
"wMM22>ssgk7..Xhjjfhnkmmckck22kkkkkk22cccccchfkhjjf.8gXXgea>22w=w",
"---22>2shkcX...Xjjfhnkkkckc8gkkkkkkg8ccccccfhhjj.d8gXmmcea>22---",
"..X22>2sjhkccm XX.ghhhhccckkkkkkkkkkcccccckkh.gd8.kcmmmcaa>22XXX",
".o@ii;i2jjkkcmmmcchNhhhcckkkkkkkkkkkccccckhhNhhhkkcmmmmhaa>22$+X",
".o*ss:sihjhkccmmmccnhhhkkkkkkkkkkkkkkcckkhhhNhhhkccmmmchea;22+w-",
" obii*ie7hjkkcmmcmcfhhkkkkkk..g77g..kkkhhhhhnhhkccmmmmc7ea;22>w-",
"X$=22;2ee7XhkccckckhfkkkkkkkgfNffNfgkkhhhhhnhhkcccmmmX7ee2*22>w-",
"X$b22>2khXg77gg.XrBckhnhkkkk8NffffN8khkhhnhhh..Xr rX.gXjfi:ii>w-",
".$>aa>akkhhhhkckckckckhnfkkk.ffffff.kkhfnhhhhkccccmcckhjfs:ss>w-",
"X#+aa=akkkhhhkkckckckkkkkkkk8NffffN8khkhkhhhkccccccckhhjji:ii>w-",
"X+:eeMekkhkhkhkkkkkkkkkkkkkk.fNXfNf.kkhkhhhkkccccccckkjfji*iitw-",
"XX aatakkkhkhkkkkkk.kkkk.kkk8.fXff.8khk.hkkk.ccccccckkjjk2;22---",
"...aa=agkkkkkkkkX7kkkkk.kkkk.88..88.kkkh.kkckc7Xccckkhjhg2>22X. ",
"$$$22>2egkkkkX77kkkkkk7kkkkkkk.88.kkkkhkk7kkccck77Xkkhhge2>22$$$",
"+&+22>222eeee7kkkkkkk7kkkkkkkkkkkkkkkkkkkk7ckcccck7eeee2aa=aa+>+",
"+;*22>22ee7kkkkkkkkk7kkkkkkkkkkkkkkkkkkkkkk7ckckckhhh7eeeetee:*>",
"*;+22>22kkkkkkkkkkk7kkkk7k7kkkkkkkkkk7k7kkkk7ckckhhhhhkkddMdd;+>",
"+*;22>22kkkkkkkkkk7kkkkge7kkkkkkkkkkkk7egkkkk7kkkkhhhhkkeetee;>*",
"+*;22;227kkkkkkkk7kkkkkekkkkkkkkkkkkkkkkekkkkk7kkhhhhhk7ee=ee*+>",
">>*22;22ekkkkkkk7kkkkkekkkkkkkkkkkkkkkkkkekkkkk7kkhkhkkeaa=aa++>",
"wwM22*2227kkkkk7kkkkkkkkkkkkkkkkkkkkkkkkkkkkkkkk7kkkhk7222=22ttw",
"---ii*iii27kkk7kkkkkkekkkkkkkkkkkkkkkkkkkkekkkkkk7kkk72222>22---",
".X.ss+sss22eeeekkkkke2Nkkkkkk7kkkk7kkkkkkN2ekkkkkeeee22222>22 . ",
" o#ii:iii22222eekkke2227kkkkkkkkkkkkkkkk7222ekkkee222222ii*ii$+X",
".O+22:22222228ll822228lkkkkkkkkkkkkkkkkkkl822228ll822iiiii*ii+w-",
"XO+22*2222222llllllllllVVkk72kkkkkk27kkVVlllllllllliiiisss:ss*w-",
"XO*22*222222228gVllllVV82222kkkkkkkk22228VVllllVg8222iiiii:ii+w-",
" O+22;2222222dllllllllll222kkkkkkkkkk222lllllllllld22222ii*ii+w-",
".O+aa>aaaa222lVVdllV2dVl28kkkkkkkkkkkk82lVd2VlldVVl2222222>22>w-",
" #+aa>aaaaaa2V8d2lV22228.kkkkkkkkkkkkkk.82222Vl2d8V2222222>22+w-",
".+=22>22222222222lV228.kkkkkkkkkkkkkkkkkk.822Vl22222222222>22ww-",
" X-22>e2222222222dl2kkkkkkkkk8kkkk8kkkkkkkkk2ld2222222222e>22---",
". .22>822222222222228.kkkkkg2kkkkkk2gkkkkk.822222222222228>22X.X",
"OO#228>8e22222222222228.kkg28kkkkkk82gkk.82222222222222e8>822$$$",
";+t8228>>>8e2222222222222222kkkkkkkk2222222222222222ed>>>8e28=+>",
"+;;w8222e8>>>>8e222222222222gkkkkkkg222222222222e8>>>>de2228w+*M",
"+;t>w.822222e8>>>8e2222222222gkkkkg2222222222e8>>>8e222228.w>=>*",
";:t:=0w.8222222e8>>>8e22222222gkkg22222222e8>>>8e222228.00w>+=>+",
"=+;+=+=ww0w.822222e8>>>8e222222gg222222e8>>>8e222228.0ww+*>>t+>+",
"=+;;=::=:=>0w0.822222e8>>>>8e222222e8>>>>8e222228.w0wt>t+>+>t=+M",
";:t+==*=;;+t+=w000.822222e8>>>8ee8>>>8e222228.000C$==t+t+>+>+=+>",
"MMMMMMMMMMMMMMMMww000.822222e8>>>>8e22228.0000wZX.+wwMMMMMMMMMMM",
"-------------------X.C000.822222222228.000ZZ-ZZZ XX------ZZZZZ--",
" . .   XXXXX.. XXXX.....rC0C0.8228.000CA r  rXr r.XX .XXXXr rXXX",
".............................000000............................."
};
