/* XPM */
static char *_9898b7842fd49d5f72870268d469cc4ktHxX44H52xWUo3X[] = {
/* columns rows colors chars-per-pixel */
"64 64 37 1 ",
"  c gray49",
". c #483818",
"X c #5D4020",
"o c #403018",
"O c #484848",
"+ c #553C1C",
"@ c #2C2C2C",
"# c #202020",
"$ c #555555",
"% c #4C4C4C",
"& c #5D5D5D",
"* c #656565",
"= c #717171",
"- c gray25",
"; c #716D00",
": c #9D9D00",
"> c #CEC600",
", c #B6AE00",
"< c #382C14",
"1 c gray22",
"2 c #858500",
"3 c #E6DA00",
"4 c #595500",
"5 c #FFF620",
"6 c #8D8D8D",
"7 c #404000",
"8 c gray19",
"9 c black",
"0 c gray11",
"q c #282828",
"w c #343434",
"e c #6D4824",
"r c #754C28",
"t c #302410",
"y c #28200C",
"u c gray60",
"i c #81502C",
/* pixels */
"  .XXXXXXXXXXXX.XXXXXX.oOOX+..........oO@@@@@#$ %&&%%%%%%%%%%*  ",
" =.XXXXXXXXXXXXoXXXX.ooO*X+...oo.......oO@@@@#$%&&%%%OOO%%%O%%* ",
"==*.XXXXXXXXXXXoXX.ooO* +X....oo.......ooO@@@#$O&%%%OOOO%%%%%%%*",
"$= .XXXXXXXXXX.o..oO** ++X.......o.....oo$O@@#$O%%%%OOO%O%%%%%%%",
"%$=*.XXXXXXXX.o.ooO*==+..X..++.........o.o*O@#$-O%%OOOO%%%%%%%%%",
"%%$*.XXXXXXX.ooo$**=*++..+..++.........o.oo$$$$-O%%OOO%%O%%%O%%%",
"%%% *.XXXX..ooO*O$=*$+...;:>>>>,:,>>>>>;.oo<****-O%%%%%%O%%%O%%%",
"%%%1*......ooO*$OOO$$oo::;2,>>,:3333333,::<<*   $O%%%%%%%%%%-%%%",
"%%%1*O...ooO* $O%OOOO;;::;;;,,2>>>>>>;4;::;;**  *-O%%%%%%%%%O%%%",
"%%%1**OooO*  *O%O--;::;44232;,2,,,,35>3244;::;   $O%%%%O%%%O-%%%",
"%%%1* ****  =O%-O-42::33333>2;:::::5:>>:33;::24+ *-O%%%%%%%O%%%%",
"%%%1*  66  =O%O-O4444;335522:;222224:2255,3;4444o*$O%%%%%%%-%%%O",
"%%%1* 666 =$O%--4::;333>22;>7;;;;;;4>>;22>:33;::4O*-%%%%%%O-%%%%",
"%%%1* 66 =*O%O-::4:43552::,;7444444:4;,::25534:4::O$O%%%%%--%%%%",
"%%O1*   ==$OO-4::444,22;;>>47777777::4>>;;22,444::4O-O%%%O-O%%%%",
"%O1**  =**-OO44442>242:2444477777772244442:242>24444OO%%%--O%%%O",
"O1** ++.**O8::442>334;>>4:;77999;99777::4>>;432>244::1O%O1-O%%O%",
"1** +XX.o$*O::433327;4444;99999;2,0009244444;732334::@-O1-O%%%%1",
"**O+X....o$7772,323:;::;49999#;2225X$q#04;::;:332327770w-OO%%%1-",
"*O+X......o473,32:2744:;9990-;2222,:ee&*O::4472:3233740wOO%%%1-*",
"O+X.......::2>:32,3;:449990q;2222249oXrr&=44:;33>2:>2::#-%%%1%**",
"+X........::2;332:>4;:999#q;222224999o+eee$:;4>::>2;2::0@111%* O",
"X........o;43332,;4:499908;222224999t55XXeeO4:4;332334;9@O%%**O+",
".........2;43,32,34:;9908;222224999t5,,5+XXo::433>3:34;2@&** *+X",
".........:;4,>32,>44990q;222224999t5,22,5+Xo$44>,,32,4;:8* ==+X.",
".........::44;;,,7;;99#@4;22222,4t5,2222,5+oO;;7,,;;44::0O**+X..",
".++......:247;;;7::490w884;2222,55,222222,5<O4::7;;;742:98&+X...",
".++......:444337:::99;:88&4;2222,,22242222,5-1:::733444:9#+X....",
".........244;3:44449;225-$e4;22222224942222,584444,>;4429y+.....",
".........4;,,3233;;;:22,5ee+4;2222249994222224;;33>:33;49yo...++",
"........o4;>332,:4:94222,5+X+:22222259to422249:4:,>::>;49yo...++",
"........o47;332244:9#4222,5+52222222:5o++42499:44:32:;749yo...++",
".......oo:47;:233;;4#&4222,5,22242222:5+X+499;;;3332;74:9yo.....",
"......oo<::;,,32,4:;0%*4222,2224942222:5++oy9::4,,323;::9yo.....",
"......o<O44;>3>224449q$=4222224999:2222::<o-14442,>2>;449yo.....",
"....oo<O* 47;33232424#O&%4222499952222249@$*;222332:;7499yo.....",
"...o<<O* &;47;:32,3420-OO%4249995:2222499yXr243,,32;74;99yo.....",
"..<<1O* &$,24,3323:4:;qO%O%49995:22224999oX;:4:3>23342,90t<.....",
".o1O*  &$%2;4>,322774;;-O%O%@05:22224999oX;::77222,>4;29#-O<<...",
"oO*   &$%%%47;3:;;4;;4::-O%O-::22224999oX;:44;4;;:3;74990-*OO<<<",
"O**  &%%%%%447;;73:;3344;-OO%O42224999oX;44>>;:37;;744990w$ *OOO",
"**u  %$%%%%O4;444;333>;;4,-O%%O424999o;:4;;>3>3;444;4999#11O$***",
"* u  1--O%%%O::242;332,34:;>:%O14092,>>:4:,2>2;242::9990q@@@@@1$",
"@O6  *11--O%%;:24;:23333>22;>>>>2>>>>>24>,3>22:;42:;990q@@@@@@#@",
"@#O u6*$11--OO;44;>:;333:>3;:,>2333332:,;>>2;:>;44;999#@@@#@@@#@",
"@#O 6 =*$$11---4;44;:2233332;,2>>>>>>2,3>22,:;44;49990q@@@#@@@#@",
"#O*  =*$$$$$11-1;,27>2;2233:;,2,,,,,,2>>2,;:>72,;9990q@@@#@@@@@@",
"O**  *$$eee$*$111;44777:,222;2:::::::;22,:77744;9990q@@@@#@@@@@#",
"*== *$$eeeeee$*$1804:27>>:42;2:::::::44:>>72:499999q@@@@########",
"  =*$eeeeeeeeee$*$80;:4744444222222224;4474:;999#1-#####@@111111",
" =*eeeXXXXXeeeeee$*%@04;;;244;;;;;;;;42;;;49999w$%$OOOOOOOOOOOOO",
" $eeXXXXXXXXXeeeeee$*O00222444444444442229999#1$*******$$*=  =* ",
"eeXXXXXXXXXXXXXeeeeee$&O0099777777777999999#q$%%%%%%$$$***$$ =* ",
"XXXXXXXXXXXXXXXXeeeeeee$&O000#999999990#@#@-&$%%%%%%%%%%%%$1==* ",
"X+XXXXXXXXXXXXXeriiiiieee*&&&$099999#88$%OO$$%%%%%%%%%%%%%%1=**e",
"XXXXXXXXXXXXXXrreXXXXXXeeee*  qqqqq%%&&$%%%$%%%%%%%%%%%%%%-O***e",
"XX+XXXXXXXXXXreXXXXXXXXXXXe.O* $$$$$*$%%%%$$%%%%%%%$%%%%%%1$**eX",
"XX+XXXXXXXXXeeXXXXXXXXXXXXX.ee.* =%*$%%%%%$%%%%%%%%$%%%%%%1***eX",
"XXXXXXXXXXXXeXXXXXXXXXXXXXX.XX..* %$$$%%%%$%%%%%%%%%%$%%%-1**eXX",
"XXXXXXXXXXXeXXXXXXXXXXXXXXX.XX..O**$$$%%%$$%%%%%%%%%%%%%%-1=*eXX",
"XXXXXXXXXXXeXXXXXXXXXXXXXXX.XX.oO*=$$$%%%$%%%%%%$$%%%%%%%-1 eeXX",
"XXXXXXXXXXeXXXXXXXXXXXXXXXX.XX.oO*=$$$%%%$%%%%%%$$$%%%%%%1O eXXX",
"XXXXXXXXXXeXXXXXXXXXXXXXXXX.XX.oO* *$$%%%$%%%%%%%$$%%%%%-1$XeXXX",
"XXXXXXXXXXeXXXXXXXXXXXXXXXX.XX..O* *$$%%%$%%%%%%%%%%%%%%-1*eXXXX"
};
