/* XPM */
static char *_6ca282f60d04664cec46955ca49f7bdGZjgXIyQqFrJdXNx[] = {
/* columns rows colors chars-per-pixel */
"64 64 28 1 ",
"  c black",
". c #282828",
"X c gray11",
"o c #8D8D8D",
"O c #656565",
"+ c gray25",
"@ c gray49",
"# c #484848",
"$ c #4C4C4C",
"% c #343434",
"& c gray22",
"* c #717171",
"= c #555555",
"- c #202020",
"; c #2C2C2C",
": c #81502C",
"> c #6D4824",
", c #5D4020",
"< c #553C1C",
"1 c #403018",
"2 c #28200C",
"3 c gray60",
"4 c #302410",
"5 c #710000",
"6 c #400000",
"7 c #590000",
"8 c #4C0000",
"9 c #890000",
/* pixels */
"                                                                ",
"...................     ....XXXXXXXX............................",
".ooooooooooooooooooooO+ .XO@ooooooooO#X ..+Oooo@O$$+%.XXXXXXXXX.",
".ooo@@@@@@@++++++++++++++&&&&&&&&&&&&&&&&&&&&&&&&&&&&&oooooo@@*=",
".oo@$=OOOOO+--------XXXXXXXXXXXXXXXXXX                oooooooooo",
".o@OOO#$OO=+-;;&&&&&&&&&&&&&&&&&&&&&&&&&&&&&&&&&&&&&.   O$$OO$$O",
".*@$O$O#O$=+-;+#####################################.   $O$#$O$$",
".*@=OO$O$$$+-&#$$$$$$$$$$$$$$$$$$$$$$$$$$$$$$$$$$$$$.   O$O=O$O=",
".$@$=$O$O=O+-&#$$$$$$$$$$$+;-------+#$$$$$$$$$$$$$$$.   =OO==O#=",
".$@$$=$$$$$+-&#$$$$$$$$$$.--         --+$$$$$$$$$$$$;   $O$O$O$=",
" +@O$=OO=$=+-&#$$$$$$$$$.-  XX.XXXXX   -$$$$$$$$$$$$;   ===$===$",
" .@$=$O$$=O+-&#$$$$$$$$:>&XXX..#+.X-.XX  $$$$$$$$$$$;   ++%%....",
" .@#OO$=$=O+-&#$$$$$$$$::::&>,&+#; ;&;X  -$$$$$$$$$$;   .....XX ",
" .#.....%+#+X&#$$$$$$$::::::&>,..X -.--   ;$$$$$$$$$;           ",
"      XX...+X&#$$$$$$$::::::&>XXXX XXXX   -$$$$$$$$$;           ",
".          +X&#$$$$$$:::::::::XXXX XXXX    $$$$$$$$$;         X.",
"$#+.X      +X&#$$$$$$>,,::::::,,,<1XXX     $$$$$$$$$;   ....+#OO",
"ooo@@O$#...+X&#$$$$$$$22<,::::::,,,,1X     $$$$$$$$$&   ..#=@333",
"ooooooooooo+X&#$$$$$$:>-,::::::::::,<4    -$$$$$$$$$&   .$@oo*@=",
"OO@@ooooooo+X&#$$$$$:@:::::::::::4,:44   -&$$$$$$$$$&   .Ooo@@=*",
"$OOO=$@@O@O+X&#$$$$:@::::::::::::>1:44   &$$$$$$$$$$&   .@o*O==O",
"O$$$$O=$=$O+X&#$$$$:,,,>::::::::>,:,44  -$$$$$$$$$$$&   .@o@$=$$",
"$$=$=OOOO=$+X&#$$$$$$ 4::::::::>::>144  &$$$$$$$$$$$&   .@oO$$$=",
"$OO$O=O$=OO+X&#$$$$$$4,::::::>,,><11144-$$$$$$$$$$$$&   Xoo$=OO=",
"O$$O$=$$$$O+X&#$$$$$$:::::::>,,,,:<<144&$$$$$$$$$$$$&   XooO$=$$",
"$O$$=$O=$O=+X&#$$$$$$>::::::>,,,,::,<44$$$$$$$$$$$$$&   Xoo$O===",
"....++$$$$$+X&#$$$$$$::::::,,<,,::::,,11$$$$$$$$$$$$&   XoO#....",
"...........+X&#$$$$$$:::,,,<<,,:::,,<111+#$$$$$$$$$$&   XO#.....",
"           +X&#$$$$$$$$$,<<<,,::,,<<<11211&#$$$$$$$$&           ",
"           +X&#$$$$$$$$$$$,,,,:,<<,<<1211111&#$$$$$$&           ",
"..X        &X&#$$$$$$$$$#>,,>:<<,,,121,,,<<1<1&#$$$$&   ..... ..",
"....XXXXXXX& &#$$$$$$$##>,>>,,,,,121,,,,,,,,,,<1&$$$&   ooo@O  .",
"..+O*oooooo& &#$$$$$$#&>>,>>,,,<21,,,,,,,,,,,,,<1+$$&   oo@O+  .",
".XOoooooooo& &#$$$$$#&1>,>>>>,12,,,,,,,1,,,,,,,,11+$&   $O$+.  .",
".X*o*OOO$O$& &#$$$$$&11>,>>>,11,,,,,,,11,,,,<<<<<11$&   $$$.   .",
".Xoo$O$OOO$& &#$$$$#111>1,>,11,,,,,,,<11,,<,,,<<<<1$&   O$$.   .",
".XooO==$=$O& &#$$$$&<<1,1,12,,,,,,,,<144,,,,,,,<114$&   =O=.   .",
".Xoo$=$O$=$& &#$$$$,<<111,,<,,,,,,,,144,,>,,,,,,112$&   =$=.   .",
".XoO$$O$$$$& &#$$$#,<<41<,,,,,,,,,,,14,,>,,>,<,,142$&   ==O.   .",
".XO+++$$=$O& &#$$$&,<<11,,,,>>,,,,,144,>,,>,,<,<142$&   =$O.   .",
".X...X+OO$$& &#$$$,,<<1<,,,>>,,,1,<44,,,,,>,<,,<142$&   OO$.   .",
".X    X....& &#$$#,,<11,,,,>,,,1,<<4$**,>>,,<,,142.$&   $=$.   .",
"....       & &#$$&,<<<1,,<122,,1<44$  .*5>1,<,,142&$&   =$O.   .",
".....      & &#$#,,<<1<,,,,2211<4$ * ****51<,,,142+$&   $$+.   .",
"......     & &#$&,,,<1,,,,>1,<<46$.    .O788<,,124$$&   ....   .",
"..XX.......& &#$,,,,11,,,,><,<<679*** * $7866<<124$$&          .",
".=@@@@*=+%.& &#$,,<<11,,,,,,<4,885$  .*$+866661244$$&          .",
".@ooooooooo& &#$,<,<,<,,,,,<4:,>125$OO$+8666661244$$&          .",
".@ooooooooo& &#:>,<1,,,<<<,:>,:>>12557886666666441$$&         ..",
".@oo=$$$$OO& &#:>>,,,,,,,,:::,,:,,,228866666664411$$&   XXXXXXX ",
".@o=$$=OOO=& &#$:>>::,,,>>::>:,::,,,2266666664441<$$&   OOOOOO# ",
".@o$=O$$$=$& &#$$::$::,,,::,,>:::>,,12666666444<<,$$&   ooooo@. ",
".@oO$OO$O=$& &#$$$$$$$>>,:,,,,,>>>,<42266644441<,,$$&   O$$O$$. ",
".@oOO=$=$$$& &#$$$$$$$:>>,,,,,1111<1114664411<<,,>$$&   $O$$O$. ",
".@o$=$O$O$O& &#$$$$$$$$:>>>>>,,,,<<<<<<6411<<,,>>:$$&   $O$=$O. ",
".@oO$=$$$=$& &#$$$$$$$$$$::::::::>>,,,,1<<<,,>>::$$$&   =$O$O$. ",
".@o$O$=$$$$& &#$$$$$$$$$$$$$:::::::::>>>>>>>::$$$$$$&   $=$==%. ",
".@o$$=$$$$$& &#$$$$$$$$$$$$$$:::$$$$$:::::::$$$$$$$$&   %%%%%.. ",
".@oO$$$$$O$& &#$$$$$$$$$$$$$$$$$$$$$$$$$$$$$$$$$$$$$&   ......  ",
".@o$$$O$=$O& .....;;;;;;;&&&&&&&&&&&&&&&&&&&&&&&&&&&&           ",
".=*%%%%%%%%&                                                    ",
"..+XXXX                                                        .",
".                                                       ........",
"                                                                "
};
